<?xml version="1.0" encoding="iso-8859-1"?>
<!-- Generator: Adobe Illustrator 19.0.0, SVG Export Plug-In . SVG Version: 6.00 Build 0)  -->
<svg version="1.1" id="Layer_1" xmlns="http://www.w3.org/2000/svg" xmlns:xlink="http://www.w3.org/1999/xlink" x="0px" y="0px"
	 viewBox="0 0 512 512" style="enable-background:new 0 0 512 512;" xml:space="preserve">
<g transform="translate(0 -1)">
	<g>
		<path d="M384,1c-18.956,0-35.495,10.313-44.347,25.626c-32.856,0.495-63.18,15.461-83.653,40.145
			c-20.473-24.684-50.798-39.65-83.653-40.145C163.495,11.313,146.956,1,128,1C99.727,1,76.8,23.927,76.8,52.2
			s22.927,51.2,51.2,51.2c18.927,0,35.445-10.282,44.306-25.556c32.171,0.875,58.094,27.314,58.094,59.692V461.8
			c-23.563,0-42.667,19.104-42.667,42.667c0,4.713,3.82,8.533,8.533,8.533h119.467c4.713,0,8.533-3.821,8.533-8.533
			c0-23.563-19.104-42.667-42.667-42.667V137.536c0-32.378,25.923-58.817,58.094-59.692C348.555,93.118,365.073,103.4,384,103.4
			c28.273,0,51.2-22.927,51.2-51.2S412.273,1,384,1z M128,86.333c-18.848,0-34.133-15.286-34.133-34.133S109.152,18.067,128,18.067
			s34.133,15.286,34.133,34.133S146.848,86.333,128,86.333z M305.743,495.933h-99.486c3.515-9.942,12.998-17.067,24.143-17.067
			h8.483c0.017,0,0.034,0.003,0.051,0.003h34.133c0.017,0,0.034-0.002,0.051-0.003h8.483
			C292.745,478.867,302.228,485.991,305.743,495.933z M332.8,61.207c-38.351,4.257-68.267,36.86-68.267,76.329V461.8h-17.067
			V137.536c0-39.469-29.915-72.072-68.267-76.329v-17.15c28.404,2.587,53.931,17.987,69.691,41.718
			c3.376,5.083,10.841,5.083,14.217,0c15.76-23.731,41.287-39.131,69.691-41.718V61.207z M384,86.333
			c-18.848,0-34.133-15.286-34.133-34.133S365.152,18.067,384,18.067c18.848,0,34.133,15.286,34.133,34.133
			S402.848,86.333,384,86.333z"/>
	</g>
</g>
<g>
</g>
<g>
</g>
<g>
</g>
<g>
</g>
<g>
</g>
<g>
</g>
<g>
</g>
<g>
</g>
<g>
</g>
<g>
</g>
<g>
</g>
<g>
</g>
<g>
</g>
<g>
</g>
<g>
</g>
</svg>
